<svg version="1" xmlns="http://www.w3.org/2000/svg" width="346.667" height="346.667" viewBox="0 0 260.000000 260.000000"><path d="M72.9 37.2c-.4 1.8-1.2 5.5-4 19.5-1.8 8.9-3.6 16-3.9 15.8-.4-.2-.7.1-.7.8 0 .7-1.9 10.4-4.3 21.7-2.3 11.3-4.4 21.6-4.6 23-.7 4.3-.9 4.8-6.5 31.7-2.3 11.1-3.9 20.8-3.6 21.7.6 1.4 3.2 1.6 19.1 1.6h18.4l-1 4.2c-.5 2.4-1.1 5.2-1.4 6.3-.2 1.1-.6 3.1-.9 4.5-.3 1.4-.7 3.6-1 5-.3 1.3-1.7 8.2-3.1 15.2-1.5 7-2.4 13.4-2 14.3.5 1.5 4.3 1.6 39.8 1.2 37.3-.4 44.6-.8 45.8-2.6.3-.5 2.9-1.4 5.8-2.1 14.3-3.4 31.1-15.2 38.1-26.9 7.3-12.1 11.1-23 12.7-36.6 1.4-12.8.7-22.1-2.7-33.1-3.5-11.4-10.1-19.7-19.5-24.6-4.3-2.3-4.9-3-5-5.9-.2-7-1.5-14.3-3.4-19.7-1.2-3.1-2.2-6.2-2.3-6.7-.9-3-4.3-8.1-8.1-11.8-4.5-4.4-16.6-11.2-22.6-12.6-1.9-.5-4.2-1-5-1.2-.8-.2-1.8-.9-2.2-1.4-.7-.9-71.7-2.2-71.9-1.3zM131 75.5c4.9 2.5 7 4.4 8.6 8.4.8 1.8 1.4 3.5 1.4 3.7 0 .2-7.9.4-17.5.4-19.7 0-18.4.6-16.4-8 1.7-7.7 1-7.3 11.2-6.8 6 .3 10.4 1.1 12.7 2.3zm39.6 76.2c-.3 2.1-.5 5.1-.5 6.8-.1 2.3-.4 2.7-1.1 1.5-.8-1.2-1-1-1 .8 0 1.3-.5 3.2-1.1 4.3-.6 1.1-1.2 2.9-1.4 3.9-.5 2.8-4.5 8.3-8.2 11.4-5.8 4.9-11.8 6.8-23 7.4-11.8.5-11.2 1.2-8.8-9.7 1.5-6.4 1.7-6.8 5.3-7.8 15.6-4.7 24.9-9.5 32.9-16.9 3.2-2.9 6.1-5.3 6.5-5.4.4 0 .6 1.7.4 3.7z"/></svg>